<svg xmlns="http://www.w3.org/2000/svg" version="1.1" xmlns:xlink="http://www.w3.org/1999/xlink" xmlns:svgjs="http://svgjs.dev/svgjs" width="1440" height="560" preserveAspectRatio="none" viewBox="0 0 1440 560">
    <g mask="url(&quot;#SvgjsMask1015&quot;)" fill="none">
        <rect width="1440"  x="0" y="0" fill="rgba(139, 92, 246, 1)"></rect>
        <path d="M1560 560L0 560 L0 376.48Q-5.23 299.25, 72 294.02Q101.02 251.04, 144 280.07Q208.86 272.93, 216 337.79Q236.57 286.37, 288 306.94Q318.93 265.87, 360 296.79Q432.11 248.91, 480 321.02Q547.98 269, 600 336.98Q643.41 260.39, 720 303.8Q744.35 256.15, 792 280.5Q874.81 243.31, 912 326.12Q935.14 277.26, 984 300.4Q1014.87 259.27, 1056 290.14Q1129.87 244.01, 1176 317.88Q1217.19 287.07, 1248 328.27Q1317.56 277.82, 1368 347.38Q1409.72 317.1, 1440 358.81Q1474.39 273.2, 1560 307.59z" fill="rgba(84, 36, 191, 1)"></path>
        <path d="M1488 560L0 560 L0 384.29Q37.67 349.96, 72 387.62Q140.81 336.44, 192 405.25Q271.6 364.85, 312 444.45Q322.54 382.99, 384 393.53Q449.49 339.02, 504 404.51Q518.31 346.81, 576 361.12Q621.21 334.32, 648 379.53Q717.21 376.74, 720 445.95Q733.15 387.1, 792 400.25Q820.24 356.49, 864 384.72Q884.87 333.59, 936 354.46Q1019.95 318.41, 1056 402.37Q1105.76 332.13, 1176 381.88Q1230.19 364.07, 1248 418.27Q1298.81 349.07, 1368 399.88Q1413.99 325.87, 1488 371.85z" fill="rgba(101, 54, 207, 1)"></path>
        <path d="M1488 560L0 560 L0 490.27Q68.82 439.09, 120 507.91Q136.58 452.5, 192 469.08Q207.54 412.62, 264 428.16Q305.42 397.58, 336 438.99Q379 409.99, 408 452.98Q489.15 414.13, 528 495.28Q577.57 424.85, 648 474.41Q670.58 424.99, 720 447.57Q743.8 399.37, 792 423.17Q834.63 393.8, 864 436.43Q941.31 393.74, 984 471.05Q1065.1 432.15, 1104 513.25Q1128.57 417.82, 1224 442.39Q1276.23 374.63, 1344 426.86Q1402.25 413.12, 1416 471.37Q1470.88 454.25, 1488 509.12z" fill="rgba(139, 92, 246, 1)"></path>
        <path d="M1464 560L0 560 L0 581.31Q37.4 546.71, 72 584.12Q92.92 533.04, 144 553.95Q195.23 485.18, 264 536.41Q303.03 455.44, 384 494.47Q433.09 471.56, 456 520.65Q540.67 485.32, 576 569.98Q641.89 515.87, 696 581.76Q700.84 514.6, 768 519.43Q817.54 448.97, 888 498.52Q942.18 480.7, 960 534.88Q1028.2 483.08, 1080 551.28Q1121.82 521.1, 1152 562.92Q1182.62 473.54, 1272 504.16Q1302.22 462.38, 1344 492.6Q1447.17 475.78, 1464 578.95z" fill="#f9f9f9"></path>
    </g>
    <defs>
        <mask id="SvgjsMask1015">
            <rect width="1440" height="560" fill="#F9F9F9"></rect>
        </mask>
    </defs>
</svg>