<svg xmlns="http://www.w3.org/2000/svg" version="1.1" xmlns:xlink="http://www.w3.org/1999/xlink" xmlns:svgjs="http://svgjs.dev/svgjs" width="1440" height="560" preserveAspectRatio="none" viewBox="0 0 1440 560">
    <g mask="url(&quot;#SvgjsMask1012&quot;)" fill="none">
        <rect width="1440" height="560" x="0" y="0" fill="url(&quot;#SvgjsLinearGradient1013&quot;)"></rect>
        <path d="M1440 0L1369.12 0L1440 70.72z" fill="rgba(255, 255, 255, .1)"></path>
        <path d="M1369.12 0L1440 70.72L1440 188.76999999999998L955.29 0z" fill="rgba(255, 255, 255, .075)"></path>
        <path d="M955.29 0L1440 188.76999999999998L1440 205.77999999999997L535.56 0z" fill="rgba(255, 255, 255, .05)"></path>
        <path d="M535.56 0L1440 205.77999999999997L1440 338.78L284.91999999999996 0z" fill="rgba(255, 255, 255, .025)"></path>
        <path d="M0 560L445.4 560L0 450.85z" fill="rgba(0, 0, 0, .1)"></path>
        <path d="M0 450.85L445.4 560L919.3299999999999 560L0 369.65000000000003z" fill="rgba(0, 0, 0, .075)"></path>
        <path d="M0 369.65L919.3299999999999 560L1028.99 560L0 347.42999999999995z" fill="rgba(0, 0, 0, .05)"></path>
        <path d="M0 347.42999999999995L1028.99 560L1215.41 560L0 274.36999999999995z" fill="rgba(0, 0, 0, .025)"></path>
    </g>
    <defs>
        <mask id="SvgjsMask1012">
            <rect width="1440" height="560" fill="#ffffff"></rect>
        </mask>
        <linearGradient x1="15.28%" y1="139.29%" x2="84.72%" y2="-39.29%" gradientUnits="userSpaceOnUse" id="SvgjsLinearGradient1013">
            <stop stop-color="#0e2a47" offset="0"></stop>
            <stop stop-color="rgba(139, 92, 246, 1)" offset="1"></stop>
        </linearGradient>
    </defs>
</svg>